<svg id="svg" version="1.1" width="100%" height="100%" preserveAspectRatio="none" viewBox="0 0 400 94.11764705882354" xmlns="http://www.w3.org/2000/svg" xmlns:xlink="http://www.w3.org/1999/xlink" ><g id="svgg"><path id="path0" d="M351.500 0.167 C 351.500 0.277,359.471 0.340,375.042 0.353 C 400.538 0.374,399.557 0.345,399.638 1.084 C 399.741 2.027,400.000 1.931,400.000 0.950 L 400.000 0.000 375.750 0.000 C 359.694 0.000,351.500 0.056,351.500 0.167 M0.000 16.500 C 0.000 19.611,0.059 21.333,0.167 21.333 C 0.274 21.333,0.333 19.611,0.333 16.500 C 0.333 13.389,0.274 11.667,0.167 11.667 C 0.059 11.667,0.000 13.389,0.000 16.500 M36.167 92.066 C 36.167 92.492,36.596 92.500,59.583 92.500 C 82.570 92.500,83.000 92.492,83.000 92.066 C 83.000 91.868,79.488 91.833,59.583 91.833 C 39.679 91.833,36.167 91.868,36.167 92.066 M397.944 91.944 C 397.753 92.136,397.823 92.333,398.083 92.333 C 398.221 92.333,398.333 92.221,398.333 92.083 C 398.333 91.823,398.136 91.753,397.944 91.944 M0.000 93.728 C 0.000 93.978,1.922 94.000,24.000 94.000 C 39.889 94.000,48.000 93.944,48.000 93.833 C 48.000 93.723,40.096 93.666,24.625 93.665 C 11.769 93.664,0.969 93.617,0.625 93.560 C 0.116 93.476,0.000 93.507,0.000 93.728 " stroke="none" fill="#a8a8a8" fill-rule="evenodd"></path><path id="path1" d="M389.553 0.458 C 391.277 0.485,394.052 0.485,395.719 0.458 C 397.386 0.431,395.975 0.409,392.583 0.409 C 389.192 0.409,387.828 0.431,389.553 0.458 M118.042 1.375 C 118.095 1.536,119.420 1.583,123.917 1.583 C 128.413 1.583,129.738 1.536,129.792 1.375 C 129.846 1.211,128.598 1.167,123.917 1.167 C 119.235 1.167,117.987 1.211,118.042 1.375 M141.333 1.417 C 141.333 1.634,142.083 1.667,147.083 1.667 C 152.083 1.667,152.833 1.634,152.833 1.417 C 152.833 1.199,152.083 1.167,147.083 1.167 C 142.083 1.167,141.333 1.199,141.333 1.417 M0.000 9.417 C 0.000 10.806,0.064 11.667,0.167 11.667 C 0.270 11.667,0.333 10.806,0.333 9.417 C 0.333 8.028,0.270 7.167,0.167 7.167 C 0.064 7.167,0.000 8.028,0.000 9.417 M0.000 35.333 C 0.000 44.556,0.057 49.333,0.167 49.333 C 0.276 49.333,0.333 44.556,0.333 35.333 C 0.333 26.111,0.276 21.333,0.167 21.333 C 0.057 21.333,0.000 26.111,0.000 35.333 M24.389 92.083 C 24.389 92.301,25.144 92.333,30.181 92.333 C 33.366 92.333,36.073 92.359,36.195 92.389 C 36.317 92.420,36.360 92.414,36.292 92.375 C 36.223 92.337,36.167 92.199,36.167 92.069 C 36.167 91.870,35.247 91.833,30.278 91.833 C 25.154 91.833,24.389 91.866,24.389 92.083 M6.721 93.625 C 10.004 93.650,15.329 93.650,18.554 93.625 C 21.778 93.600,19.092 93.579,12.583 93.579 C 6.075 93.579,3.437 93.600,6.721 93.625 M305.083 93.833 C 305.015 93.944,314.752 94.000,334.167 94.000 C 353.582 94.000,363.319 93.944,363.250 93.833 C 363.182 93.723,353.307 93.667,334.167 93.667 C 315.026 93.667,305.151 93.723,305.083 93.833 " stroke="none" fill="#8c8c8c" fill-rule="evenodd"></path><path id="path2" d="M0.192 0.277 C 0.068 0.412,0.013 0.568,0.069 0.625 C 0.209 0.764,0.553 0.404,0.477 0.198 C 0.444 0.107,0.316 0.143,0.192 0.277 M222.833 0.163 C 222.833 0.478,224.175 0.483,311.391 0.549 C 379.513 0.601,399.226 0.660,399.322 0.816 C 399.390 0.926,399.494 4.475,399.551 8.703 C 399.619 13.612,399.719 16.452,399.828 16.562 C 399.946 16.679,400.000 15.234,400.000 11.960 C 400.000 8.957,399.938 7.148,399.833 7.083 C 399.732 7.021,399.667 5.814,399.667 4.022 C 399.667 1.817,399.610 0.986,399.444 0.759 C 399.229 0.465,396.385 0.452,317.111 0.370 C 271.928 0.323,235.000 0.221,235.000 0.142 C 235.000 0.064,232.262 0.000,228.917 0.000 C 225.051 0.000,222.833 0.060,222.833 0.163 M112.169 1.000 C 106.707 1.077,106.250 1.106,106.198 1.375 C 106.167 1.535,106.223 1.667,106.321 1.667 C 106.420 1.667,106.500 1.554,106.500 1.417 C 106.500 1.197,107.928 1.167,118.351 1.167 C 128.817 1.167,130.191 1.196,130.106 1.417 C 130.022 1.636,130.689 1.667,135.505 1.667 C 140.278 1.667,141.000 1.634,141.000 1.417 C 141.000 1.199,141.787 1.167,147.083 1.167 C 152.380 1.167,153.167 1.199,153.167 1.417 C 153.167 1.683,189.563 1.754,204.750 1.518 C 211.009 1.420,210.645 1.409,194.917 1.202 C 178.287 0.984,122.913 0.849,112.169 1.000 M316.333 1.332 C 316.333 1.664,316.431 1.667,328.012 1.667 C 339.045 1.667,339.688 1.651,339.635 1.375 C 339.541 0.884,316.333 0.842,316.333 1.332 M0.000 4.083 C 0.000 5.806,0.062 6.833,0.167 6.833 C 0.277 6.833,0.333 14.833,0.333 30.500 C 0.333 46.167,0.277 54.167,0.167 54.167 C 0.060 54.167,0.000 55.833,0.000 58.833 C 0.000 61.400,0.063 63.500,0.140 63.500 C 0.470 63.500,0.719 3.468,0.396 1.854 C 0.154 0.645,0.000 1.511,0.000 4.083 M397.908 1.681 C 397.762 1.917,398.083 2.238,398.319 2.092 C 398.583 1.929,398.540 1.500,398.260 1.500 C 398.128 1.500,397.969 1.582,397.908 1.681 M399.612 50.605 C 399.489 62.250,399.646 82.134,399.861 82.267 C 399.937 82.314,400.000 72.861,400.000 61.260 C 400.000 49.659,399.937 40.167,399.861 40.167 C 399.784 40.167,399.672 44.864,399.612 50.605 M1.111 69.204 C 0.917 87.399,0.952 91.940,1.287 92.331 C 1.573 92.666,1.683 92.667,42.245 92.633 L 82.917 92.600 50.000 92.491 C 31.896 92.431,13.615 92.371,9.375 92.358 C 4.363 92.342,1.667 92.275,1.667 92.167 C 1.667 92.058,5.595 91.987,13.042 91.962 C 19.298 91.941,22.954 91.904,21.167 91.879 C 19.379 91.854,14.167 91.815,9.583 91.792 L 1.250 91.750 1.207 82.375 C 1.169 74.081,1.193 73.000,1.417 73.000 C 1.737 73.000,1.722 58.991,1.402 58.884 C 1.274 58.841,1.189 61.857,1.111 69.204 M398.361 89.675 C 398.413 92.316,398.396 92.512,398.125 92.441 C 397.964 92.399,397.875 92.432,397.926 92.516 C 398.113 92.818,398.588 92.653,398.792 92.215 C 399.192 91.353,399.075 86.833,398.653 86.833 C 398.312 86.833,398.306 86.888,398.361 89.675 M130.000 92.639 C 130.000 93.272,211.347 93.258,211.468 92.625 C 211.521 92.349,210.879 92.333,199.846 92.333 C 189.575 92.333,188.167 92.363,188.167 92.583 C 188.167 92.803,186.751 92.833,176.422 92.833 C 166.051 92.833,164.688 92.804,164.773 92.583 C 164.858 92.362,162.863 92.333,147.434 92.333 C 130.629 92.333,130.000 92.344,130.000 92.639 M399.701 92.947 C 399.590 93.148,399.509 93.485,399.519 93.697 C 399.536 94.039,399.548 94.045,399.622 93.750 C 399.668 93.567,399.779 93.370,399.869 93.313 C 399.959 93.257,400.003 93.069,399.967 92.897 C 399.907 92.606,399.887 92.610,399.701 92.947 M6.042 93.458 C 9.410 93.483,14.923 93.483,18.292 93.458 C 21.660 93.433,18.904 93.412,12.167 93.412 C 5.429 93.412,2.673 93.433,6.042 93.458 M47.958 93.611 C 63.339 93.648,71.333 93.725,71.333 93.834 C 71.333 93.943,75.344 94.000,82.950 94.000 C 90.756 94.000,94.512 93.945,94.399 93.832 C 94.287 93.721,82.511 93.646,59.407 93.609 C 40.254 93.579,35.102 93.580,47.958 93.611 M287.292 93.621 C 275.850 93.652,269.833 93.725,269.833 93.834 C 269.833 94.079,304.705 94.062,304.950 93.817 C 305.134 93.633,352.823 93.702,384.894 93.933 C 396.431 94.016,398.693 93.995,398.630 93.808 C 398.556 93.584,338.000 93.483,287.292 93.621 " stroke="none" fill="#6d6d6d" fill-rule="evenodd"></path><path id="path3" d="M235.000 0.167 C 235.000 0.277,254.500 0.333,293.167 0.333 C 331.833 0.333,351.333 0.277,351.333 0.167 C 351.333 0.056,331.833 0.000,293.167 0.000 C 254.500 0.000,235.000 0.056,235.000 0.167 M369.208 0.458 C 372.394 0.484,377.606 0.484,380.792 0.458 C 383.977 0.433,381.371 0.412,375.000 0.412 C 368.629 0.412,366.023 0.433,369.208 0.458 M106.500 1.417 C 106.500 1.634,107.259 1.667,112.328 1.667 C 117.440 1.667,118.144 1.636,118.060 1.417 C 117.915 1.039,106.500 1.039,106.500 1.417 M129.768 1.431 C 129.705 1.593,129.743 1.669,129.864 1.629 C 130.114 1.545,130.251 1.167,130.032 1.167 C 129.942 1.167,129.823 1.285,129.768 1.431 M141.000 1.417 C 141.000 1.554,141.075 1.667,141.167 1.667 C 141.258 1.667,141.333 1.554,141.333 1.417 C 141.333 1.279,141.258 1.167,141.167 1.167 C 141.075 1.167,141.000 1.279,141.000 1.417 M152.833 1.417 C 152.833 1.554,152.908 1.667,153.000 1.667 C 153.092 1.667,153.167 1.554,153.167 1.417 C 153.167 1.279,153.092 1.167,153.000 1.167 C 152.908 1.167,152.833 1.279,152.833 1.417 M399.667 4.480 C 399.667 5.967,399.734 7.022,399.833 7.083 C 399.942 7.150,400.000 6.311,400.000 4.686 C 400.000 3.199,399.932 2.145,399.833 2.083 C 399.725 2.016,399.667 2.856,399.667 4.480 M0.000 51.750 C 0.000 53.250,0.063 54.167,0.167 54.167 C 0.270 54.167,0.333 53.250,0.333 51.750 C 0.333 50.250,0.270 49.333,0.167 49.333 C 0.063 49.333,0.000 50.250,0.000 51.750 M1.207 82.375 C 1.235 88.485,1.308 91.750,1.417 91.750 C 1.525 91.750,1.598 88.485,1.626 82.375 C 1.664 74.088,1.640 73.000,1.417 73.000 C 1.193 73.000,1.169 74.088,1.207 82.375 M1.667 92.167 C 1.667 92.397,24.275 92.397,24.417 92.167 C 24.485 92.056,20.668 92.000,13.093 92.000 C 5.587 92.000,1.667 92.057,1.667 92.167 M27.375 92.458 C 29.002 92.485,31.665 92.485,33.292 92.458 C 34.919 92.431,33.587 92.408,30.333 92.408 C 27.079 92.408,25.748 92.431,27.375 92.458 M164.773 92.583 C 164.688 92.804,166.051 92.833,176.422 92.833 C 186.751 92.833,188.167 92.803,188.167 92.583 C 188.167 92.363,186.761 92.333,176.518 92.333 C 166.317 92.333,164.857 92.364,164.773 92.583 M48.167 93.833 C 48.167 93.943,52.139 94.000,59.750 94.000 C 67.361 94.000,71.333 93.943,71.333 93.833 C 71.333 93.724,67.361 93.667,59.750 93.667 C 52.139 93.667,48.167 93.724,48.167 93.833 M363.310 93.877 C 363.381 93.947,365.908 93.985,368.927 93.961 L 374.417 93.916 368.800 93.833 C 365.711 93.787,363.240 93.807,363.310 93.877 " stroke="none" fill="#7c7c7c" fill-rule="evenodd"></path><path id="path4" d="M0.500 0.255 C 0.500 0.396,0.388 0.554,0.250 0.606 C -0.053 0.722,-0.083 1.278,0.208 1.375 C 0.515 1.477,0.515 63.356,0.208 63.458 C 0.044 63.513,-0.000 66.656,-0.000 78.431 L 0.000 93.333 3.542 93.334 C 25.970 93.336,94.284 93.719,94.408 93.843 C 94.651 94.084,269.787 94.054,269.868 93.813 C 269.977 93.486,398.480 93.420,398.605 93.747 C 398.769 94.175,399.500 94.068,399.500 93.615 C 399.500 93.404,399.610 93.085,399.745 92.907 C 400.066 92.482,400.123 82.523,399.806 82.206 C 399.525 81.925,399.525 40.297,399.805 40.204 C 400.065 40.117,400.088 16.821,399.828 16.562 C 399.719 16.452,399.619 13.612,399.551 8.703 C 399.494 4.475,399.390 0.926,399.322 0.816 C 399.226 0.660,379.484 0.597,311.171 0.534 C 237.297 0.466,223.107 0.416,222.917 0.226 C 222.552 -0.138,0.500 -0.109,0.500 0.255 M194.917 1.202 C 209.339 1.392,210.567 1.427,205.417 1.503 C 202.208 1.551,225.852 1.607,257.958 1.628 C 316.235 1.667,316.333 1.666,316.333 1.333 C 316.333 0.806,339.481 0.808,339.619 1.335 C 339.706 1.670,339.775 1.670,369.062 1.627 L 398.417 1.583 398.374 44.208 C 398.331 86.790,398.331 86.833,398.665 86.833 C 399.076 86.833,399.183 91.374,398.792 92.215 C 398.584 92.663,398.112 92.816,397.917 92.500 C 397.697 92.145,211.552 92.284,211.459 92.639 C 211.289 93.287,130.000 93.287,130.000 92.640 C 130.000 92.284,83.136 92.145,82.917 92.500 C 82.682 92.880,1.613 92.712,1.287 92.331 C 0.952 91.940,0.917 87.399,1.111 69.201 C 1.202 60.643,1.261 58.834,1.444 58.904 C 1.629 58.975,1.667 54.168,1.667 30.328 L 1.667 1.667 53.897 1.667 C 105.875 1.667,106.128 1.665,106.214 1.335 C 106.298 1.014,106.473 1.003,112.192 0.960 C 126.760 0.852,180.126 1.008,194.917 1.202 " stroke="none" fill="#060606" fill-rule="evenodd"></path></g></svg>